<svg xmlns="http://www.w3.org/2000/svg" width="16" height="16" viewBox="0 0 16 16">
  <path fill="currentColor" d="M15.135,7.52685714 C13.832,7.20085714 13.214,5.70885714 13.905,4.55785714 C14.227,4.02185714 14.13,3.55985714 13.811,3.24185714 L13.501,2.93185714 C13.183,2.61385714 12.721,2.51685714 12.185,2.83785714 C11.033,3.52885714 9.541,2.91085714 9.216,1.60785714 C9.065,1.00085714 8.669,0.742857143 8.219,0.742857143 L7.781,0.742857143 C7.331,0.742857143 6.936,1.00085714 6.784,1.60785714 C6.458,2.91085714 4.966,3.52885714 3.815,2.83785714 C3.279,2.51585714 2.816,2.61285714 2.498,2.93085714 L2.188,3.24085714 C1.87,3.55885714 1.773,4.02185714 2.095,4.55785714 C2.786,5.70985714 2.168,7.20185714 0.865,7.52685714 C0.26,7.67785714 0,8.07285714 0,8.52385714 L0,8.96185714 C0,9.41185714 0.258,9.80685714 0.865,9.95885714 C2.168,10.2848571 2.786,11.7768571 2.095,12.9278571 C1.773,13.4638571 1.87,13.9258571 2.189,14.2438571 L2.499,14.5538571 C2.818,14.8728571 3.281,14.9688571 3.815,14.6478571 C4.967,13.9568571 6.459,14.5748571 6.784,15.8778571 C6.935,16.4848571 7.331,16.7428571 7.781,16.7428571 L8.219,16.7428571 C8.669,16.7428571 9.064,16.4848571 9.216,15.8778571 C9.542,14.5748571 11.034,13.9568571 12.185,14.6478571 C12.72,14.9688571 13.182,14.8728571 13.501,14.5538571 L13.811,14.2438571 C14.129,13.9258571 14.226,13.4638571 13.905,12.9278571 C13.214,11.7758571 13.832,10.2838571 15.135,9.95885714 C15.742,9.80785714 16,9.41185714 16,8.96185714 L16,8.52385714 C16,8.07285714 15.74,7.67785714 15.135,7.52685714 Z M8,11.7428571 C6.343,11.7428571 5,10.3998571 5,8.74285714 C5,7.08585714 6.343,5.74285714 8,5.74285714 C9.657,5.74285714 11,7.08585714 11,8.74285714 C11,10.3998571 9.657,11.7428571 8,11.7428571 Z" transform="translate(0 -.743)"/>
</svg>
